<svg width="30" height="27" viewBox="0 0 30 27" fill="none" xmlns="http://www.w3.org/2000/svg">
<path d="M16.9485 13.751C17.7488 13.0491 18.3907 12.181 18.8306 11.2057C19.2706 10.2303 19.4983 9.17044 19.4982 8.09804C19.4982 6.08291 18.7081 4.15032 17.3017 2.72541C15.8953 1.30051 13.9879 0.5 11.9989 0.5C10.01 0.5 8.10249 1.30051 6.6961 2.72541C5.2897 4.15032 4.49959 6.08291 4.49959 8.09804C4.49958 9.17044 4.72728 10.2303 5.16722 11.2057C5.60717 12.181 6.24907 13.0491 7.04936 13.751C4.94976 14.7142 3.16841 16.2698 1.9183 18.2316C0.668183 20.1934 0.00220758 22.4786 0 24.8137C0 25.2167 0.158021 25.6033 0.4393 25.8883C0.720579 26.1732 1.10208 26.3333 1.49986 26.3333C1.89765 26.3333 2.27915 26.1732 2.56043 25.8883C2.84171 25.6033 2.99973 25.2167 2.99973 24.8137C2.99973 22.3956 3.94786 20.0765 5.63553 18.3666C7.32321 16.6567 9.61219 15.6961 11.9989 15.6961C14.3857 15.6961 16.6746 16.6567 18.3623 18.3666C20.05 20.0765 20.9981 22.3956 20.9981 24.8137C20.9981 25.2167 21.1561 25.6033 21.4374 25.8883C21.7187 26.1732 22.1002 26.3333 22.498 26.3333C22.8958 26.3333 23.2773 26.1732 23.5585 25.8883C23.8398 25.6033 23.9978 25.2167 23.9978 24.8137C23.9956 22.4786 23.3297 20.1934 22.0795 18.2316C20.8294 16.2698 19.0481 14.7142 16.9485 13.751ZM11.9989 12.6569C11.109 12.6569 10.239 12.3895 9.49908 11.8886C8.75912 11.3876 8.1824 10.6756 7.84184 9.84262C7.50127 9.00961 7.41217 8.09298 7.58578 7.20866C7.7594 6.32433 8.18795 5.51203 8.81722 4.87446C9.4465 4.2369 10.2483 3.80272 11.1211 3.62681C11.9939 3.45091 12.8986 3.54119 13.7208 3.88624C14.543 4.23128 15.2458 4.8156 15.7402 5.56529C16.2346 6.31499 16.4985 7.19639 16.4985 8.09804C16.4985 9.30711 16.0245 10.4667 15.1806 11.3216C14.3368 12.1766 13.1923 12.6569 11.9989 12.6569ZM29.5623 9.05539C29.4229 8.91296 29.257 8.79991 29.0742 8.72276C28.8915 8.64561 28.6954 8.6059 28.4974 8.6059C28.2994 8.6059 28.1034 8.64561 27.9206 8.72276C27.7378 8.79991 27.572 8.91296 27.4325 9.05539L24.4328 12.0946L23.5029 11.1373C23.3634 10.9948 23.1976 10.8818 23.0148 10.8046C22.832 10.7275 22.636 10.6878 22.438 10.6878C22.24 10.6878 22.0439 10.7275 21.8612 10.8046C21.6784 10.8818 21.5125 10.9948 21.3731 11.1373C21.0937 11.422 20.9369 11.8071 20.9369 12.2086C20.9369 12.61 21.0937 12.9952 21.3731 13.2799L23.3829 15.3162C23.6639 15.5992 24.0441 15.7581 24.4403 15.7581C24.8365 15.7581 25.2167 15.5992 25.4977 15.3162L29.5023 11.2588C29.6538 11.121 29.7759 10.9534 29.8614 10.7663C29.9469 10.5791 29.9938 10.3763 29.9994 10.1702C30.005 9.96402 29.9692 9.75888 29.894 9.56723C29.8189 9.37558 29.706 9.20144 29.5623 9.05539Z" fill="#4283EC"/>
</svg>
