<svg width="30" height="30" viewBox="0 0 30 30" fill="none" xmlns="http://www.w3.org/2000/svg">
<path d="M28.9499 12.12C28.5285 11.614 28.001 11.2067 27.4049 10.9267C26.8088 10.6468 26.1585 10.5012 25.4999 10.5H18.66L19.5 8.35505C19.8494 7.41587 19.9657 6.40596 19.8391 5.41194C19.7124 4.41791 19.3465 3.46945 18.7727 2.6479C18.199 1.82636 17.4345 1.15626 16.5449 0.69508C15.6552 0.233901 14.667 -0.00458913 13.665 6.68867e-05C13.3764 0.000668928 13.0942 0.0844796 12.8521 0.24145C12.61 0.398421 12.4183 0.62189 12.3 0.885065L8.02498 10.5H4.49999C3.30652 10.5 2.16193 10.9741 1.31802 11.8181C0.474105 12.662 0 13.8066 0 15V25.5C0 26.6935 0.474105 27.8381 1.31802 28.682C2.16193 29.5259 3.30652 30 4.49999 30H23.5949C24.6477 29.9996 25.6669 29.6302 26.4754 28.956C27.2839 28.2818 27.8305 27.3455 28.0199 26.31L29.9249 15.81C30.0428 15.1611 30.0165 14.4942 29.848 13.8566C29.6795 13.2189 29.3729 12.6261 28.9499 12.12ZM7.49998 27H4.49999C4.10217 27 3.72064 26.842 3.43933 26.5607C3.15803 26.2794 2.99999 25.8978 2.99999 25.5V15C2.99999 14.6022 3.15803 14.2207 3.43933 13.9394C3.72064 13.6581 4.10217 13.5 4.49999 13.5H7.49998V27ZM26.9999 15.27L25.0949 25.77C25.0311 26.1194 24.8452 26.4349 24.5705 26.6601C24.2958 26.8854 23.9501 27.0058 23.5949 27H10.5V12.315L14.58 3.13506C14.9999 3.2575 15.39 3.46567 15.7255 3.74643C16.0609 4.0272 16.3346 4.37446 16.5291 4.7663C16.7236 5.15813 16.8347 5.58604 16.8555 6.023C16.8764 6.45997 16.8064 6.8965 16.65 7.30505L15.855 9.45005C15.6856 9.90343 15.6284 10.3911 15.6883 10.8713C15.7482 11.3516 15.9234 11.8103 16.199 12.2081C16.4745 12.606 16.8423 12.9313 17.2708 13.1563C17.6994 13.3813 18.176 13.4992 18.66 13.5H25.4999C25.7203 13.4997 25.938 13.5479 26.1377 13.6412C26.3373 13.7345 26.5139 13.8707 26.6549 14.04C26.7994 14.207 26.9053 14.4039 26.9649 14.6165C27.0246 14.8291 27.0365 15.0523 26.9999 15.27Z" fill="#4283EC"/>
</svg>
