<svg width="30" height="30" viewBox="0 0 30 30" fill="none" xmlns="http://www.w3.org/2000/svg">
<path d="M14.9957 26.9922H4.4987C4.10099 26.9922 3.71957 26.8342 3.43834 26.553C3.15712 26.2717 2.99913 25.8903 2.99913 25.4926V4.4987C2.99913 4.10099 3.15712 3.71957 3.43834 3.43834C3.71957 3.15712 4.10099 2.99913 4.4987 2.99913H11.9965V7.49783C11.9965 8.69095 12.4705 9.83522 13.3142 10.6789C14.1578 11.5226 15.3021 11.9965 16.4952 11.9965H20.9939V13.4961C20.9939 13.8938 21.1519 14.2752 21.4331 14.5564C21.7143 14.8377 22.0958 14.9957 22.4935 14.9957C22.8912 14.9957 23.2726 14.8377 23.5538 14.5564C23.8351 14.2752 23.993 13.8938 23.993 13.4961V10.497C23.993 10.497 23.993 10.497 23.993 10.407C23.9774 10.2692 23.9473 10.1335 23.9031 10.0021V9.86714C23.831 9.71295 23.7348 9.57122 23.6182 9.44726L14.6208 0.44987C14.4968 0.333228 14.3551 0.237053 14.2009 0.164952C14.1561 0.158594 14.1107 0.158594 14.0659 0.164952C13.9136 0.0775894 13.7453 0.0215101 13.5711 0H4.4987C3.30557 0 2.16131 0.473969 1.31764 1.31764C0.473969 2.16131 0 3.30557 0 4.4987V25.4926C0 26.6857 0.473969 27.83 1.31764 28.6737C2.16131 29.5173 3.30557 29.9913 4.4987 29.9913H14.9957C15.3934 29.9913 15.7748 29.8333 16.056 29.5521C16.3372 29.2709 16.4952 28.8894 16.4952 28.4917C16.4952 28.094 16.3372 27.7126 16.056 27.4314C15.7748 27.1502 15.3934 26.9922 14.9957 26.9922ZM14.9957 5.11352L18.8795 8.99739H16.4952C16.0975 8.99739 15.7161 8.8394 15.4349 8.55818C15.1536 8.27696 14.9957 7.89554 14.9957 7.49783V5.11352ZM7.49783 8.99739C7.10012 8.99739 6.7187 9.15538 6.43747 9.4366C6.15625 9.71783 5.99826 10.0992 5.99826 10.497C5.99826 10.8947 6.15625 11.2761 6.43747 11.5573C6.7187 11.8385 7.10012 11.9965 7.49783 11.9965H8.99739C9.3951 11.9965 9.77652 11.8385 10.0577 11.5573C10.339 11.2761 10.497 10.8947 10.497 10.497C10.497 10.0992 10.339 9.71783 10.0577 9.4366C9.77652 9.15538 9.3951 8.99739 8.99739 8.99739H7.49783ZM29.5564 27.427L27.8019 25.6876C28.3627 24.7087 28.5872 23.573 28.4409 22.4545C28.2947 21.3359 27.7858 20.2961 26.9922 19.4943C26.2619 18.7381 25.3208 18.2193 24.2915 18.0055C23.2622 17.7917 22.1923 17.8929 21.2213 18.2959C20.2503 18.6988 19.4232 19.3849 18.8477 20.2647C18.2722 21.1445 17.975 22.1772 17.9948 23.2283C17.9896 24.1328 18.221 25.0229 18.666 25.8104C19.111 26.5979 19.7542 27.2554 20.5317 27.7177C21.3092 28.1799 22.194 28.4309 23.0984 28.4457C24.0028 28.4604 24.8954 28.2385 25.6876 27.8019L27.427 29.5564C27.5665 29.697 27.7323 29.8085 27.915 29.8847C28.0978 29.9608 28.2938 30 28.4917 30C28.6897 30 28.8857 29.9608 29.0684 29.8847C29.2512 29.8085 29.417 29.697 29.5564 29.5564C29.697 29.417 29.8085 29.2512 29.8847 29.0684C29.9608 28.8857 30 28.6897 30 28.4917C30 28.2938 29.9608 28.0978 29.8847 27.915C29.8085 27.7323 29.697 27.5665 29.5564 27.427ZM24.8028 24.8028C24.3745 25.2056 23.8087 25.4298 23.2208 25.4298C22.6328 25.4298 22.067 25.2056 21.6387 24.8028C21.2259 24.3826 20.9944 23.8173 20.9939 23.2283C20.9908 22.9325 21.0477 22.6391 21.1611 22.3659C21.2745 22.0927 21.4421 21.8454 21.6537 21.6387C22.0535 21.2411 22.5897 21.0106 23.1533 20.9939C23.4565 20.9753 23.7602 21.0195 24.0455 21.1238C24.3308 21.2281 24.5914 21.3903 24.8111 21.6001C25.0307 21.8098 25.2046 22.0628 25.3219 22.343C25.4392 22.6232 25.4973 22.9246 25.4926 23.2283C25.4802 23.8237 25.2321 24.39 24.8028 24.8028ZM16.4952 14.9957H7.49783C7.10012 14.9957 6.7187 15.1536 6.43747 15.4349C6.15625 15.7161 5.99826 16.0975 5.99826 16.4952C5.99826 16.8929 6.15625 17.2743 6.43747 17.5556C6.7187 17.8368 7.10012 17.9948 7.49783 17.9948H16.4952C16.8929 17.9948 17.2743 17.8368 17.5556 17.5556C17.8368 17.2743 17.9948 16.8929 17.9948 16.4952C17.9948 16.0975 17.8368 15.7161 17.5556 15.4349C17.2743 15.1536 16.8929 14.9957 16.4952 14.9957ZM13.4961 23.993C13.8938 23.993 14.2752 23.8351 14.5564 23.5538C14.8377 23.2726 14.9957 22.8912 14.9957 22.4935C14.9957 22.0958 14.8377 21.7143 14.5564 21.4331C14.2752 21.1519 13.8938 20.9939 13.4961 20.9939H7.49783C7.10012 20.9939 6.7187 21.1519 6.43747 21.4331C6.15625 21.7143 5.99826 22.0958 5.99826 22.4935C5.99826 22.8912 6.15625 23.2726 6.43747 23.5538C6.7187 23.8351 7.10012 23.993 7.49783 23.993H13.4961Z" fill="#4283EC"/>
</svg>
