<svg width="108" height="22" viewBox="0 0 108 22" fill="none" xmlns="http://www.w3.org/2000/svg">
<path d="M0.1 -1.43051e-06H5.44C6.98 -1.43051e-06 8.3 0.289999 9.4 0.87C10.52 1.45 11.36 2.23 11.92 3.21C12.5 4.17 12.79 5.22 12.79 6.36C12.79 7.5 12.5 8.56 11.92 9.54C11.36 10.5 10.52 11.27 9.4 11.85C8.3 12.43 6.98 12.72 5.44 12.72H2.8V21H0.1V-1.43051e-06ZM5.47 10.44C6.87 10.44 7.99 10.1 8.83 9.42C9.67 8.72 10.09 7.7 10.09 6.36C10.09 5.02 9.67 4.01 8.83 3.33C7.99 2.63 6.87 2.28 5.47 2.28H2.8V10.44H5.47ZM15.7403 6.18H18.1403V8.34C18.6403 7.5 19.2703 6.86 20.0303 6.42C20.7903 5.98 21.5703 5.76 22.3703 5.76C23.2503 5.76 24.0103 5.99 24.6503 6.45L24.8003 8.88H24.5303C23.8703 8.24 23.0303 7.92 22.0103 7.92C20.9703 7.92 20.0603 8.3 19.2803 9.06C18.5203 9.82 18.1403 10.98 18.1403 12.54V21H15.7403V6.18ZM33.4823 21.42C32.0423 21.42 30.7323 21.09 29.5523 20.43C28.3723 19.75 27.4323 18.82 26.7323 17.64C26.0523 16.44 25.7123 15.09 25.7123 13.59C25.7123 12.09 26.0523 10.75 26.7323 9.57C27.4323 8.37 28.3723 7.44 29.5523 6.78C30.7323 6.1 32.0423 5.76 33.4823 5.76C34.9223 5.76 36.2323 6.1 37.4123 6.78C38.5923 7.44 39.5223 8.37 40.2023 9.57C40.9023 10.75 41.2523 12.09 41.2523 13.59C41.2523 15.09 40.9023 16.44 40.2023 17.64C39.5223 18.82 38.5923 19.75 37.4123 20.43C36.2323 21.09 34.9223 21.42 33.4823 21.42ZM33.4823 19.26C34.5023 19.26 35.4123 19.02 36.2123 18.54C37.0323 18.06 37.6723 17.39 38.1323 16.53C38.6123 15.67 38.8523 14.69 38.8523 13.59C38.8523 12.49 38.6123 11.51 38.1323 10.65C37.6723 9.79 37.0323 9.12 36.2123 8.64C35.4123 8.16 34.5023 7.92 33.4823 7.92C32.4623 7.92 31.5423 8.16 30.7223 8.64C29.9223 9.12 29.2823 9.79 28.8023 10.65C28.3423 11.51 28.1123 12.49 28.1123 13.59C28.1123 14.69 28.3423 15.67 28.8023 16.53C29.2823 17.39 29.9223 18.06 30.7223 18.54C31.5423 19.02 32.4623 19.26 33.4823 19.26ZM45.2083 2.28H39.6883V-1.43051e-06H53.4283V2.28H47.9083V21H45.2083V2.28ZM60.494 21.42C59.054 21.42 57.744 21.09 56.564 20.43C55.384 19.75 54.444 18.82 53.744 17.64C53.064 16.44 52.724 15.09 52.724 13.59C52.724 12.09 53.064 10.75 53.744 9.57C54.444 8.37 55.384 7.44 56.564 6.78C57.744 6.1 59.054 5.76 60.494 5.76C61.934 5.76 63.244 6.1 64.424 6.78C65.604 7.44 66.534 8.37 67.214 9.57C67.914 10.75 68.264 12.09 68.264 13.59C68.264 15.09 67.914 16.44 67.214 17.64C66.534 18.82 65.604 19.75 64.424 20.43C63.244 21.09 61.934 21.42 60.494 21.42ZM60.494 19.26C61.514 19.26 62.424 19.02 63.224 18.54C64.044 18.06 64.684 17.39 65.144 16.53C65.624 15.67 65.864 14.69 65.864 13.59C65.864 12.49 65.624 11.51 65.144 10.65C64.684 9.79 64.044 9.12 63.224 8.64C62.424 8.16 61.514 7.92 60.494 7.92C59.474 7.92 58.554 8.16 57.734 8.64C56.934 9.12 56.294 9.79 55.814 10.65C55.354 11.51 55.124 12.49 55.124 13.59C55.124 14.69 55.354 15.67 55.814 16.53C56.294 17.39 56.934 18.06 57.734 18.54C58.554 19.02 59.474 19.26 60.494 19.26Z" fill="#242A33"/>
<path d="M71.2565 -1.43051e-06H75.5165V8.13H83.8565V-1.43051e-06H88.1165V21H83.8565V11.73H75.5165V21H71.2565V-1.43051e-06ZM91.8229 -1.43051e-06H98.4529C100.533 -1.43051e-06 102.223 0.539999 103.523 1.62C104.843 2.7 105.503 4.18 105.503 6.06C105.503 7.42 105.153 8.58 104.453 9.54C103.753 10.5 102.783 11.2 101.543 11.64L107.153 21H102.443L97.1029 12.12H96.0829V21H91.8229V-1.43051e-06ZM98.0929 8.46C100.193 8.46 101.243 7.66 101.243 6.06C101.243 4.46 100.193 3.66 98.0929 3.66H96.0829V8.46H98.0929Z" fill="#4283EC"/>
</svg>
