<svg width="72" height="15" viewBox="0 0 72 15" fill="none" xmlns="http://www.w3.org/2000/svg">
<path d="M0.4 -9.53674e-07H3.96C4.98667 -9.53674e-07 5.86667 0.193333 6.6 0.58C7.34667 0.966666 7.90667 1.48667 8.28 2.14C8.66667 2.78 8.86 3.48 8.86 4.24C8.86 5 8.66667 5.70667 8.28 6.36C7.90667 7 7.34667 7.51333 6.6 7.9C5.86667 8.28667 4.98667 8.48 3.96 8.48H2.2V14H0.4V-9.53674e-07ZM3.98 6.96C4.91333 6.96 5.66 6.73333 6.22 6.28C6.78 5.81333 7.06 5.13333 7.06 4.24C7.06 3.34667 6.78 2.67333 6.22 2.22C5.66 1.75333 4.91333 1.52 3.98 1.52H2.2V6.96H3.98ZM10.8269 4.12H12.4269V5.56C12.7602 5 13.1802 4.57333 13.6869 4.28C14.1935 3.98667 14.7135 3.84 15.2469 3.84C15.8335 3.84 16.3402 3.99333 16.7669 4.3L16.8669 5.92H16.6869C16.2469 5.49333 15.6869 5.28 15.0069 5.28C14.3135 5.28 13.7069 5.53333 13.1869 6.04C12.6802 6.54667 12.4269 7.32 12.4269 8.36V14H10.8269V4.12ZM22.6548 14.28C21.6948 14.28 20.8215 14.06 20.0348 13.62C19.2482 13.1667 18.6215 12.5467 18.1548 11.76C17.7015 10.96 17.4748 10.06 17.4748 9.06C17.4748 8.06 17.7015 7.16667 18.1548 6.38C18.6215 5.58 19.2482 4.96 20.0348 4.52C20.8215 4.06667 21.6948 3.84 22.6548 3.84C23.6148 3.84 24.4882 4.06667 25.2748 4.52C26.0615 4.96 26.6815 5.58 27.1348 6.38C27.6015 7.16667 27.8348 8.06 27.8348 9.06C27.8348 10.06 27.6015 10.96 27.1348 11.76C26.6815 12.5467 26.0615 13.1667 25.2748 13.62C24.4882 14.06 23.6148 14.28 22.6548 14.28ZM22.6548 12.84C23.3348 12.84 23.9415 12.68 24.4748 12.36C25.0215 12.04 25.4482 11.5933 25.7548 11.02C26.0748 10.4467 26.2348 9.79333 26.2348 9.06C26.2348 8.32667 26.0748 7.67333 25.7548 7.1C25.4482 6.52667 25.0215 6.08 24.4748 5.76C23.9415 5.44 23.3348 5.28 22.6548 5.28C21.9748 5.28 21.3615 5.44 20.8148 5.76C20.2815 6.08 19.8548 6.52667 19.5348 7.1C19.2282 7.67333 19.0748 8.32667 19.0748 9.06C19.0748 9.79333 19.2282 10.4467 19.5348 11.02C19.8548 11.5933 20.2815 12.04 20.8148 12.36C21.3615 12.68 21.9748 12.84 22.6548 12.84ZM30.4722 1.52H26.7922V-9.53674e-07H35.9522V1.52H32.2722V14H30.4722V1.52ZM40.6627 14.28C39.7027 14.28 38.8293 14.06 38.0427 13.62C37.256 13.1667 36.6293 12.5467 36.1627 11.76C35.7093 10.96 35.4827 10.06 35.4827 9.06C35.4827 8.06 35.7093 7.16667 36.1627 6.38C36.6293 5.58 37.256 4.96 38.0427 4.52C38.8293 4.06667 39.7027 3.84 40.6627 3.84C41.6227 3.84 42.496 4.06667 43.2827 4.52C44.0693 4.96 44.6893 5.58 45.1427 6.38C45.6093 7.16667 45.8427 8.06 45.8427 9.06C45.8427 10.06 45.6093 10.96 45.1427 11.76C44.6893 12.5467 44.0693 13.1667 43.2827 13.62C42.496 14.06 41.6227 14.28 40.6627 14.28ZM40.6627 12.84C41.3427 12.84 41.9493 12.68 42.4827 12.36C43.0293 12.04 43.456 11.5933 43.7627 11.02C44.0827 10.4467 44.2427 9.79333 44.2427 9.06C44.2427 8.32667 44.0827 7.67333 43.7627 7.1C43.456 6.52667 43.0293 6.08 42.4827 5.76C41.9493 5.44 41.3427 5.28 40.6627 5.28C39.9827 5.28 39.3693 5.44 38.8227 5.76C38.2893 6.08 37.8627 6.52667 37.5427 7.1C37.236 7.67333 37.0827 8.32667 37.0827 9.06C37.0827 9.79333 37.236 10.4467 37.5427 11.02C37.8627 11.5933 38.2893 12.04 38.8227 12.36C39.3693 12.68 39.9827 12.84 40.6627 12.84Z" fill="#242A33"/>
<path d="M47.8377 -9.53674e-07H50.6777V5.42H56.2377V-9.53674e-07H59.0777V14H56.2377V7.82H50.6777V14H47.8377V-9.53674e-07ZM61.5486 -9.53674e-07H65.9686C67.3553 -9.53674e-07 68.4819 0.359999 69.3486 1.08C70.2286 1.8 70.6686 2.78667 70.6686 4.04C70.6686 4.94667 70.4353 5.72 69.9686 6.36C69.5019 7 68.8553 7.46667 68.0286 7.76L71.7686 14H68.6286L65.0686 8.08H64.3886V14H61.5486V-9.53674e-07ZM65.7286 5.64C67.1286 5.64 67.8286 5.10667 67.8286 4.04C67.8286 2.97333 67.1286 2.44 65.7286 2.44H64.3886V5.64H65.7286Z" fill="#4283EC"/>
</svg>
